<svg xmlns="http://www.w3.org/2000/svg" viewBox="0 0 512 512" fill="#0d9488"><path d="M139.61 35.5a12 12 0 0 0-17 0L58.93 98.81l-22.7-22.12a12 12 0 0 0-17 0L3.53 92.41a12 12 0 0 0 0 17l47.59 47.4a12.78 12.78 0 0 0 17.61 0l15.59-15.62L156.52 69.69a12 12 0 0 0 .09-17.19zM64 256c-35.35 0-64 28.65-64 64s28.65 64 64 64 64-28.65 64-64-28.65-64-64-64zm384-136H192c-17.67 0-32 14.33-32 32v32c0 17.67 14.33 32 32 32h256c17.67 0 32-14.33 32-32v-32c0-17.67-14.33-32-32-32zm0 256H192c-17.67 0-32 14.33-32 32v32c0 17.67 14.33 32 32 32h256c17.67 0 32-14.33 32-32v-32c0-17.67-14.33-32-32-32z"/></svg>
