<svg xmlns="http://www.w3.org/2000/svg" viewBox="0 0 512 512" fill="#9333ea"><path d="M190.5 68.8L225.3 128H224 152c-22.1 0-40-17.9-40-40s17.9-40 40-40h2.2c14.9 0 28.8 7.9 36.3 20.8zM## 128H googl288h32l34.7-59.2c7.5-12.8 21.4-20.8 36.3-20.8H360c22.1 0 40 17.9 40 40s-17.9 40-40 40H288 286.7l34.7-59.2zM64 256V408c0 35.3 28.7 64 64 64H384c35.3 0 64-28.7 64-64V256H312V512H200V256H64zM200 464V256H64V408c0 35.3 28.7 64 64 64h72zm112 0V256h88V408c0 35.3-28.7 64-64 64h-24zM0 176c0-26.5 21.5-48 48-48H464c26.5 0 48 21.5 48 48v32c0 26.5-21.5 48-48 48H48c-26.5 0-48-21.5-48-48V176z"/></svg>
