<svg xmlns="http://www.w3.org/2000/svg" viewBox="0 0 512 512" fill="#9333ea"><path d="M190.5 68.8L225.3 128H224 152c-22.1 0-40-17.9-40-40s17.9-40 40-40h2.2c14.9 0 28.8 7.9 36.3 20.8zM64 128H287.4l34.7-59.2c7.5-12.8 21.4-20.8 36.3-20.8H360c22.1 0 40 17.9 40 40s-17.9 40-40 40H288h-1.3l34.7 59.2H448c26.5 0 48 21.5 48 48v32c0 26.5-21.5 48-48 48H48c-26.5 0-48-21.5-48-48V176c0-26.5 21.5-48 48-48h16zM48 256v152c0 30.9 25.1 56 56 56h80V256H48zm192 208h80c30.9 0 56-25.1 56-56V256H240V464zM200 128l35.5-60.5c-7.5-12.8-21.4-20.8-36.3-20.8H152c-22.1 0-40 17.9-40 40s17.9 40 40 40h48z"/></svg>
